<?xml version="1.0" encoding="UTF-8" standalone="no"?>
<!-- Generator: Adobe Illustrator 17.1.0, SVG Export Plug-In . SVG Version: 6.00 Build 0)  -->

<svg
   xmlns:dc="http://purl.org/dc/elements/1.1/"
   xmlns:cc="http://creativecommons.org/ns#"
   xmlns:rdf="http://www.w3.org/1999/02/22-rdf-syntax-ns#"
   xmlns:svg="http://www.w3.org/2000/svg"
   xmlns="http://www.w3.org/2000/svg"
   xmlns:sodipodi="http://sodipodi.sourceforge.net/DTD/sodipodi-0.dtd"
   xmlns:inkscape="http://www.inkscape.org/namespaces/inkscape"
   version="1.1"
   id="Capa_1"
   x="0px"
   y="0px"
   viewBox="0 0 296 296"
   style="enable-background:new 0 0 296 296;"
   xml:space="preserve"
   sodipodi:docname="power_plant_solar.svg"
   inkscape:version="0.92.3 (2405546, 2018-03-11)"><metadata
   id="metadata15"><rdf:RDF><cc:Work
       rdf:about=""><dc:format>image/svg+xml</dc:format><dc:type
         rdf:resource="http://purl.org/dc/dcmitype/StillImage" /></cc:Work></rdf:RDF></metadata><defs
   id="defs13" /><sodipodi:namedview
   pagecolor="#ffffff"
   bordercolor="#666666"
   borderopacity="1"
   objecttolerance="10"
   gridtolerance="10"
   guidetolerance="10"
   inkscape:pageopacity="0"
   inkscape:pageshadow="2"
   inkscape:window-width="1920"
   inkscape:window-height="1098"
   id="namedview11"
   showgrid="false"
   inkscape:zoom="0.7972973"
   inkscape:cx="119.15254"
   inkscape:cy="148"
   inkscape:window-x="1920"
   inkscape:window-y="48"
   inkscape:window-maximized="1"
   inkscape:current-layer="g8" />
<g
   id="g8">
	<polygon
   points="79.685,125.5 139.667,125.5 139.667,76.5 82.951,76.5  "
   id="polygon2"
   style="fill:#8787de;stroke:#000000;stroke-opacity:1;stroke-width:10;stroke-miterlimit:4;stroke-dasharray:none" />
	<polygon
   points="155.667,76.5 155.667,125.5 215.652,125.5 212.385,76.5  "
   id="polygon4"
   style="fill:#8787de;stroke:#000000;stroke-opacity:1;stroke-width:10;stroke-miterlimit:4;stroke-dasharray:none" />
	<path
   d="M295.944,191.555l-20-168C275.465,19.53,272.053,16.5,268,16.5H28c-4.053,0-7.465,3.03-7.944,7.055l-20,168   c-0.27,2.27,0.444,4.548,1.963,6.257C3.536,199.522,5.714,200.5,8,200.5h99.667v45.041c-20,6.942-33.334,19.285-33.334,33.959   h147.334c0-14.674-13-27.017-34-33.959V200.5H288c2.286,0,4.464-0.979,5.981-2.689C295.5,196.103,296.214,193.825,295.944,191.555z    M235.087,176.5h-16.035l-2.334-35h-61.051v35h-16v-35H78.618l-2.334,35H60.249l2.333-35H30.185l1.904-16h31.56l3.267-49H37.923   l1.904-16h28.155l1.333-20h16.036l-1.334,20h55.649v-20h16v20h55.651l-1.334-20h16.036l1.333,20h28.819l1.904,16h-29.656l3.267,49   h32.224l1.904,16h-33.061L235.087,176.5z"
   id="path6"
   style="fill:#8787de;stroke:#000000;stroke-opacity:1;stroke-width:10;stroke-miterlimit:4;stroke-dasharray:none" />
</g>
</svg>