<?xml version="1.0" encoding="UTF-8" standalone="no"?>
<!-- Generator: Adobe Illustrator 17.1.0, SVG Export Plug-In . SVG Version: 6.00 Build 0)  -->

<svg
   xmlns:dc="http://purl.org/dc/elements/1.1/"
   xmlns:cc="http://creativecommons.org/ns#"
   xmlns:rdf="http://www.w3.org/1999/02/22-rdf-syntax-ns#"
   xmlns:svg="http://www.w3.org/2000/svg"
   xmlns="http://www.w3.org/2000/svg"
   xmlns:sodipodi="http://sodipodi.sourceforge.net/DTD/sodipodi-0.dtd"
   xmlns:inkscape="http://www.inkscape.org/namespaces/inkscape"
   version="1.1"
   id="Capa_1"
   x="0px"
   y="0px"
   viewBox="0 0 298 298"
   style="enable-background:new 0 0 298 298;"
   xml:space="preserve"
   sodipodi:docname="power_plant_oilgas.svg"
   inkscape:version="0.92.3 (2405546, 2018-03-11)"><metadata
   id="metadata11"><rdf:RDF><cc:Work
       rdf:about=""><dc:format>image/svg+xml</dc:format><dc:type
         rdf:resource="http://purl.org/dc/dcmitype/StillImage" /></cc:Work></rdf:RDF></metadata><defs
   id="defs9" /><sodipodi:namedview
   pagecolor="#ffffff"
   bordercolor="#666666"
   borderopacity="1"
   objecttolerance="10"
   gridtolerance="10"
   guidetolerance="10"
   inkscape:pageopacity="0"
   inkscape:pageshadow="2"
   inkscape:window-width="1920"
   inkscape:window-height="1098"
   id="namedview7"
   showgrid="false"
   inkscape:zoom="1.1199812"
   inkscape:cx="-117.74797"
   inkscape:cy="122.75136"
   inkscape:window-x="1920"
   inkscape:window-y="48"
   inkscape:window-maximized="1"
   inkscape:current-layer="g4" />
<g
   id="g4"
   style="fill:#00d400;fill-opacity:1;stroke:#000000;stroke-opacity:1;stroke-width:10;stroke-miterlimit:4;stroke-dasharray:none">
	<path
   d="m 180.5,91 c 0,-3.35 -1.895,-6.215 -4.816,-7.406 5.137,-3.645 9.419,-8.482 12.467,-14.45 7.928,-15.519 6.327,-36.279 -3.952,-50.488 -0.938,-1.295 -2.54,-1.907 -4.095,-1.558 -1.561,0.35 -2.752,1.596 -3.046,3.168 -1.9,10.151 -5.624,19.863 -8.672,23.392 C 166.938,39.284 163.605,32.3 155.941,22.82 149.895,15.341 152.2,5.023 152.221,4.935 c 0.369,-1.539 -0.202,-3.152 -1.46,-4.113 -1.259,-0.961 -2.964,-1.091 -4.353,-0.328 -0.699,0.384 -17.081,9.771 -12.875,42.024 0.378,2.893 -0.181,5.359 -1.573,6.944 -0.932,1.063 -2.182,1.646 -3.52,1.646 -1.305,0 -2.61,-0.55 -3.775,-1.592 -3.521,-3.144 -4.937,-10.033 -5.184,-12.414 -0.163,-1.63 -1.304,-2.996 -2.878,-3.447 -1.573,-0.453 -3.266,0.101 -4.267,1.399 -5.501,7.118 -7.459,22.903 -1.032,35.992 2.443,4.976 5.697,9.105 9.958,12.322 C 118.019,84.391 115.5,87.42 115.5,91 v 132 h -9.667 c -4.418,0 -8.333,3.582 -8.333,8 v 22.865 c -5,1.757 -10.506,3.797 -15.27,6.118 C 62.521,269.588 51.833,283 51.833,298 h 194 c 0,-15 -11.02,-28.373 -30.729,-37.978 -5.052,-2.462 -10.604,-4.608 -16.604,-6.438 V 231 c 0,-4.418 -3.249,-8 -7.667,-8 H 180.5 Z m -48.057,-8 c 0.112,-2.012 1.389,-9.732 13.182,-25.576 0.755,-1.014 1.945,-1.611 3.209,-1.611 1.264,0 2.454,0.598 3.209,1.611 11.792,15.844 13.069,23.565 13.181,25.576 z"
   id="path2"
   style="fill:#00d400;fill-opacity:1;stroke:#000000;stroke-width:10;stroke-miterlimit:4;stroke-dasharray:none;stroke-opacity:1"
   inkscape:connector-curvature="0"
   sodipodi:nodetypes="cccccccccccccsccccccccssccccccssccccsccc" />
</g>
</svg>