<?xml version="1.0" encoding="UTF-8" standalone="no"?>
<!-- Generator: Adobe Illustrator 17.1.0, SVG Export Plug-In . SVG Version: 6.00 Build 0)  -->

<svg
   xmlns:dc="http://purl.org/dc/elements/1.1/"
   xmlns:cc="http://creativecommons.org/ns#"
   xmlns:rdf="http://www.w3.org/1999/02/22-rdf-syntax-ns#"
   xmlns:svg="http://www.w3.org/2000/svg"
   xmlns="http://www.w3.org/2000/svg"
   xmlns:sodipodi="http://sodipodi.sourceforge.net/DTD/sodipodi-0.dtd"
   xmlns:inkscape="http://www.inkscape.org/namespaces/inkscape"
   version="1.1"
   id="Capa_1"
   x="0px"
   y="0px"
   viewBox="0 0 297 297"
   style="enable-background:new 0 0 297 297;"
   xml:space="preserve"
   sodipodi:docname="power_plant_geothermal.svg"
   inkscape:version="0.92.3 (2405546, 2018-03-11)"><metadata
   id="metadata11"><rdf:RDF><cc:Work
       rdf:about=""><dc:format>image/svg+xml</dc:format><dc:type
         rdf:resource="http://purl.org/dc/dcmitype/StillImage" /></cc:Work></rdf:RDF></metadata><defs
   id="defs9" /><sodipodi:namedview
   pagecolor="#ffffff"
   bordercolor="#666666"
   borderopacity="1"
   objecttolerance="10"
   gridtolerance="10"
   guidetolerance="10"
   inkscape:pageopacity="0"
   inkscape:pageshadow="2"
   inkscape:window-width="1920"
   inkscape:window-height="1098"
   id="namedview7"
   showgrid="false"
   inkscape:zoom="0.79461279"
   inkscape:cx="119.55508"
   inkscape:cy="148.5"
   inkscape:window-x="1920"
   inkscape:window-y="48"
   inkscape:window-maximized="1"
   inkscape:current-layer="Capa_1" />
<g
   id="g4"
   style="fill:#999999;fill-opacity:1;stroke:#000000;stroke-opacity:1;stroke-width:10;stroke-miterlimit:4;stroke-dasharray:none">
	<path
   d="M292.297,123.94c-2.954-1.254-6.453-0.625-8.764,1.601L217,189.552v-58.249c0-3.212-1.754-6.112-4.712-7.366   c-2.957-1.254-6.46-0.615-8.769,1.618L138,188.899v-57.597c0-3.211-1.752-6.11-4.708-7.364c-2.954-1.253-6.291-0.619-8.6,1.61   l-66.02,63.821L53.422,75.632c-0.197-4.27-3.696-7.63-7.97-7.63h-6.029c10.7-2.098,17.438-7.158,23.093-11.427   c6.045-4.563,10.038-7.577,19.265-7.577c9.226,0,13.22,3.015,19.265,7.577c7.331,5.535,16.456,12.423,33.724,12.423   c17.267,0,26.391-6.889,33.722-12.423c6.044-4.563,10.036-7.577,19.26-7.577c9.225,0,13.217,3.015,19.261,7.577   c7.331,5.535,16.455,12.423,33.722,12.423c6.627,0,12-5.372,12-12s-5.373-12-12-12c-9.225,0-13.217-3.015-19.261-7.577   c-7.331-5.535-16.455-12.423-33.722-12.423c-17.267,0-26.39,6.888-33.721,12.423c-6.044,4.563-10.036,7.577-19.261,7.577   c-9.226,0-13.22-3.015-19.265-7.577c-7.331-5.535-16.456-12.423-33.724-12.423c-17.268,0-26.393,6.888-33.724,12.423   c-6.045,4.563-10.038,7.577-19.265,7.577c-6.627,0-12,5.372-12,12c0,4.928,2.973,9.156,7.219,11.004H16.71   c-4.275,0-7.794,3.36-7.991,7.63l-8.71,188c-0.102,2.184,0.695,4.314,2.205,5.895c1.51,1.581,3.6,2.476,5.786,2.476h281.333   c4.418,0,7.667-3.582,7.667-8V131.303C297,128.094,295.249,125.196,292.297,123.94z M275,231.002c0,4.418-3.582,8-8,8h-21   c-4.418,0-8-3.582-8-8v-19c0-4.418,3.582-8,8-8h21c4.418,0,8,3.582,8,8V231.002z M195,231.002c0,4.418-3.582,8-8,8h-20   c-4.418,0-8-3.582-8-8v-19c0-4.418,3.582-8,8-8h20c4.418,0,8,3.582,8,8V231.002z M116,231.002c0,4.418-3.582,8-8,8H88   c-4.418,0-8-3.582-8-8v-19c0-4.418,3.582-8,8-8h20c4.418,0,8,3.582,8,8V231.002z"
   id="path2"
   style="fill:#999999;fill-opacity:1;stroke:#000000;stroke-opacity:1;stroke-width:10;stroke-miterlimit:4;stroke-dasharray:none" />
</g>
</svg>